<svg width="26" height="26" viewBox="0 0 26 26" fill="none" xmlns="http://www.w3.org/2000/svg">
<path d="M23.1111 0.245361H2.88889C1.3 0.245361 0 1.4963 0 3.02523V22.4843C0 24.0146 1.3 25.2642 2.88889 25.2642H13V15.5346H10.1111V12.0945H13V9.24518C13 6.23736 14.7507 4.12466 18.4398 4.12466L21.0441 4.12744V7.74822H19.3151C17.8793 7.74822 17.3333 8.78511 17.3333 9.74694V12.0959H21.0427L20.2222 15.5346H17.3333V25.2642H23.1111C24.7 25.2642 26 24.0146 26 22.4843V3.02523C26 1.4963 24.7 0.245361 23.1111 0.245361Z" fill="#DADADA"/>
</svg>
