<svg width="26" height="26" viewBox="0 0 26 26" fill="none" xmlns="http://www.w3.org/2000/svg">
<path d="M12.9965 8.58319C10.6094 8.58319 8.66141 10.4577 8.66141 12.7548C8.66141 15.0518 10.6094 16.9263 12.9965 16.9263C15.3836 16.9263 17.3316 15.0518 17.3316 12.7548C17.3316 10.4577 15.3836 8.58319 12.9965 8.58319ZM25.9985 12.7548C25.9985 11.0273 26.0148 9.31548 25.914 7.59115C25.8132 5.58829 25.3384 3.81075 23.8164 2.34616C22.2911 0.878444 20.4472 0.424672 18.3658 0.327658C16.5706 0.230645 14.7917 0.246292 12.9998 0.246292C11.2046 0.246292 9.42566 0.230645 7.63373 0.327658C5.55236 0.424672 3.70515 0.881573 2.18315 2.34616C0.657899 3.81388 0.186339 5.58829 0.0855228 7.59115C-0.0152934 9.31861 0.000967329 11.0304 0.000967329 12.7548C0.000967329 14.4791 -0.0152934 16.194 0.0855228 17.9184C0.186339 19.9212 0.661151 21.6988 2.18315 23.1634C3.7084 24.6311 5.55236 25.0849 7.63373 25.1819C9.42891 25.2789 11.2078 25.2632 12.9998 25.2632C14.7949 25.2632 16.5739 25.2789 18.3658 25.1819C20.4472 25.0849 22.2944 24.6279 23.8164 23.1634C25.3416 21.6956 25.8132 19.9212 25.914 17.9184C26.0181 16.194 25.9985 14.4822 25.9985 12.7548ZM12.9965 19.1733C9.30533 19.1733 6.32637 16.3067 6.32637 12.7548C6.32637 9.20282 9.30533 6.33623 12.9965 6.33623C16.6877 6.33623 19.6666 9.20282 19.6666 12.7548C19.6666 16.3067 16.6877 19.1733 12.9965 19.1733ZM19.9398 7.57237C19.078 7.57237 18.382 6.90266 18.382 6.07335C18.382 5.24405 19.078 4.57434 19.9398 4.57434C20.8016 4.57434 21.4976 5.24405 21.4976 6.07335C21.4978 6.27028 21.4577 6.46531 21.3795 6.64729C21.3013 6.82927 21.1866 6.99462 21.0419 7.13387C20.8972 7.27311 20.7254 7.38352 20.5363 7.45877C20.3471 7.53401 20.1445 7.57261 19.9398 7.57237Z" fill="#DADADA"/>
</svg>
